<svg xmlns="http://www.w3.org/2000/svg" width="130" height="34" viewBox="0 0 130 34" fill="none">
  <defs>
    <linearGradient id="btnBg" x1="0%" y1="0%" x2="100%" y2="100%">
      <stop offset="0%" stop-color="#0e2238"/>
      <stop offset="100%" stop-color="#081424"/>
    </linearGradient>
  </defs>
  <rect x="0.75" y="0.75" width="128.5" height="32.5" rx="7" fill="url(#btnBg)" stroke="#1f6feb" stroke-width="1.2" stroke-opacity="0.6"/>
  <g transform="translate(14, 9)">
    <path fill="#58a6ff" d="M14.82 0H1.18A1.18 1.18 0 0 0 0 1.18v13.64A1.18 1.18 0 0 0 1.18 16h13.64A1.18 1.18 0 0 0 16 14.82V1.18A1.18 1.18 0 0 0 14.82 0zM4.75 13.63H2.37V6H4.75v7.63zM3.56 4.96a1.38 1.38 0 1 1 0-2.76 1.38 1.38 0 0 1 0 2.76zm10.07 8.67h-2.37V9.92c0-.89-.02-2.03-1.24-2.03-1.24 0-1.43.97-1.43 1.97v3.77H6.22V6h2.28v1.04h.03c.32-.6 1.1-1.24 2.26-1.24 2.42 0 2.86 1.59 2.86 3.66v4.17z"/>
  </g>
  <text x="73" y="21.5" fill="#e6edf3" font-family="-apple-system, BlinkMacSystemFont, 'Segoe UI', Helvetica, Arial, sans-serif" font-size="12" font-weight="700" letter-spacing="1.2" text-anchor="middle">LINKEDIN</text>
</svg>